<svg width="190.0800048828125px" height="129.88001708984376px" xmlns="http://www.w3.org/2000/svg" viewBox="154.95999755859376 10.05999145507812 190.0800048828125 129.88001708984376" style="background: rgba(0, 0, 0, 0) none repeat scroll 0% 0%;" preserveAspectRatio="xMidYMid"><defs><filter id="editing-extrusion" x="-100%" y="-100%" width="300%" height="300%"><feFlood result="color1" flood-color="#444"></feFlood><feConvolveMatrix order="4,4" divisor="1" kernelMatrix="1 0 0 0 0 1 0 0 0 0 1 0 0 0 0 1" in="SourceAlpha" result="extrude"></feConvolveMatrix><feComposite in="color1" in2="extrude" result="comp-extrude" operator="in"></feComposite><feOffset dx="2" dy="2" in="comp-extrude" result="offset-extrude"></feOffset><feMerge><feMergeNode in="offset-extrude"></feMergeNode><feMergeNode in="SourceGraphic"></feMergeNode></feMerge></filter></defs><g filter="url(#editing-extrusion)"><g transform="translate(188.04999685287476, 99.06500053405762)"><path d="M12.78-24.81L12.78-24.81L12.78-24.81Q6.13-29.53 6.13-35.30L6.13-35.30L6.13-35.30Q6.13-41.06 10.23-44.28L10.23-44.28L10.23-44.28Q14.34-47.50 19.95-47.50L19.95-47.50L19.95-47.50Q25.56-47.50 29.39-44.39L29.39-44.39L29.39-44.39Q33.22-41.28 33.22-35.88L33.22-35.88L33.22-35.88Q33.22-32.63 31.33-29.52L31.33-29.52L31.33-29.52Q29.44-26.41 26.31-24.88L26.31-24.88L26.31-24.88Q30.63-22.34 32.30-20.34L32.30-20.34L32.30-20.34Q33.97-18.34 34.72-16.48L34.72-16.48L34.72-16.48Q35.47-14.63 35.47-12.19L35.47-12.19L35.47-12.19Q35.47-6.97 31.14-3.17L31.14-3.17L31.14-3.17Q26.81 0.63 19.55 0.63L19.55 0.63L19.55 0.63Q12.28 0.63 8.05-2.75L8.05-2.75L8.05-2.75Q3.81-6.13 3.81-12.53L3.81-12.53L3.81-12.53Q3.81-18.94 9.34-22.88L9.34-22.88L9.34-22.88Q10.97-24.03 12.78-24.81ZM22.91-26.78L22.91-26.78L22.91-26.78Q27.41-29.19 27.41-35.84L27.41-35.84L27.41-35.84Q27.41-41.47 23.22-43.31L23.22-43.31L23.22-43.31Q21.88-43.91 20.31-43.91L20.31-43.91L20.31-43.91Q17.19-43.91 15.20-42.09L15.20-42.09L15.20-42.09Q13.22-40.28 13.22-37.88L13.22-37.88L13.22-37.88Q13.22-35.47 14.03-33.97L14.03-33.97L14.03-33.97Q14.84-32.47 16.48-30.94L16.48-30.94L16.48-30.94Q18.13-29.41 22.91-26.78ZM16.16-22.63L16.16-22.63L16.16-22.63Q10.31-20.31 10.31-11.97L10.31-11.97L10.31-11.97Q10.31-8.47 12.73-5.88L12.73-5.88L12.73-5.88Q15.16-3.28 19.08-3.28L19.08-3.28L19.08-3.28Q23-3.28 25.42-5.25L25.42-5.25L25.42-5.25Q27.84-7.22 27.84-10.72L27.84-10.72L27.84-10.72Q27.84-15.53 20.38-20.06L20.38-20.06L20.38-20.06Q18.28-21.31 16.16-22.63ZM61.84 0.63L61.84 0.63L61.84 0.63Q53.88 0.63 48.72-5.80L48.72-5.80L48.72-5.80Q43.56-12.22 43.56-23.75L43.56-23.75L43.56-23.75Q43.56-35.28 49.09-41.75L49.09-41.75L49.09-41.75Q54.03-47.50 61.84-47.50L61.84-47.50L61.84-47.50Q69.66-47.50 74.59-41.75L74.59-41.75L74.59-41.75Q80.13-35.28 80.13-23.75L80.13-23.75L80.13-23.75Q80.13-12.22 74.97-5.80L74.97-5.80L74.97-5.80Q69.81 0.63 61.84 0.63ZM61.84-3.13L61.84-3.13L61.84-3.13Q65.81-3.13 68.47-7.09L68.47-7.09L68.47-7.09Q71.81-12.13 71.81-23.05L71.81-23.05L71.81-23.05Q71.81-33.97 69.03-38.86L69.03-38.86L69.03-38.86Q66.25-43.75 61.84-43.75L61.84-43.75L61.84-43.75Q54.94-43.75 52.69-33L52.69-33L52.69-33Q51.88-29.19 51.88-24.36L51.88-24.36L51.88-24.36Q51.88-19.53 52.31-16.36L52.31-16.36L52.31-16.36Q52.75-13.19 53.50-10.88L53.50-10.88L53.50-10.88Q54.81-6.69 57.08-4.91L57.08-4.91L57.08-4.91Q59.34-3.13 61.84-3.13ZM97.41-24.81L97.41-24.81L97.41-24.81Q90.75-29.53 90.75-35.30L90.75-35.30L90.75-35.30Q90.75-41.06 94.86-44.28L94.86-44.28L94.86-44.28Q98.97-47.50 104.58-47.50L104.58-47.50L104.58-47.50Q110.19-47.50 114.02-44.39L114.02-44.39L114.02-44.39Q117.84-41.28 117.84-35.88L117.84-35.88L117.84-35.88Q117.84-32.63 115.95-29.52L115.95-29.52L115.95-29.52Q114.06-26.41 110.94-24.88L110.94-24.88L110.94-24.88Q115.25-22.34 116.92-20.34L116.92-20.34L116.92-20.34Q118.59-18.34 119.34-16.48L119.34-16.48L119.34-16.48Q120.09-14.63 120.09-12.19L120.09-12.19L120.09-12.19Q120.09-6.97 115.77-3.17L115.77-3.17L115.77-3.17Q111.44 0.63 104.17 0.63L104.17 0.63L104.17 0.63Q96.91 0.63 92.67-2.75L92.67-2.75L92.67-2.75Q88.44-6.13 88.44-12.53L88.44-12.53L88.44-12.53Q88.44-18.94 93.97-22.88L93.97-22.88L93.97-22.88Q95.59-24.03 97.41-24.81ZM107.53-26.78L107.53-26.78L107.53-26.78Q112.03-29.19 112.03-35.84L112.03-35.84L112.03-35.84Q112.03-41.47 107.84-43.31L107.84-43.31L107.84-43.31Q106.50-43.91 104.94-43.91L104.94-43.91L104.94-43.91Q101.81-43.91 99.83-42.09L99.83-42.09L99.83-42.09Q97.84-40.28 97.84-37.88L97.84-37.88L97.84-37.88Q97.84-35.47 98.66-33.97L98.66-33.97L98.66-33.97Q99.47-32.47 101.11-30.94L101.11-30.94L101.11-30.94Q102.75-29.41 107.53-26.78ZM100.78-22.63L100.78-22.63L100.78-22.63Q94.94-20.31 94.94-11.97L94.94-11.97L94.94-11.97Q94.94-8.47 97.36-5.88L97.36-5.88L97.36-5.88Q99.78-3.28 103.70-3.28L103.70-3.28L103.70-3.28Q107.63-3.28 110.05-5.25L110.05-5.25L110.05-5.25Q112.47-7.22 112.47-10.72L112.47-10.72L112.47-10.72Q112.47-15.53 105-20.06L105-20.06L105-20.06Q102.91-21.31 100.78-22.63Z" fill="#ccc"></path></g></g><style>text {
  font-size: 64px;
  font-family: Arial Black;
  dominant-baseline: central;
  text-anchor: middle;
}</style></svg>