<svg id="Capa_1" enable-background="new 0 0 512 512" height="512" viewBox="0 0 512 512" width="512" xmlns="http://www.w3.org/2000/svg"><g><path d="m194.759 98.647-51.427 361.989c-3.872 27.114 17.192 51.364 44.549 51.364h230.819c27.326 0 48.425-24.218 44.55-51.353l-51.431-362.011c-3.146-22.026-22.298-38.636-44.548-38.636h-21.561c1.665-4.695 2.58-9.742 2.58-15 0-24.813-20.187-45-45-45s-45 20.187-45 45c0 5.258.915 10.305 2.58 15h-21.561c-22.25 0-41.401 16.61-44.55 38.647zm108.531-68.647c8.271 0 15 6.729 15 15s-6.729 15-15 15-15-6.729-15-15 6.729-15 15-15zm63.981 60c7.417 0 13.801 5.537 14.848 12.867l51.431 362.011c1.302 9.119-5.778 17.122-14.85 17.122h-230.819c-9.147 0-16.143-8.065-14.848-17.133l51.427-361.989c1.048-7.341 7.432-12.878 14.849-12.878z"/><path d="m93.29 512c8.284 0 15-6.716 15-15v-347.58c17.459-6.192 30-22.865 30-42.42 0-24.813-20.187-45-45-45s-45 20.187-45 45c0 19.555 12.541 36.228 30 42.42v347.58c0 8.284 6.716 15 15 15zm0-420c8.271 0 15 6.729 15 15s-6.729 15-15 15-15-6.729-15-15 6.729-15 15-15z"/></g></svg>